<svg xmlns="http://www.w3.org/2000/svg" width="400" height="400" viewBox="0 0 0 0 400 400"><path d="M288.331 9.93c-4.24 1.513-9.81 5.59-11.209 8.204-.748 1.397-2.007 1.868-5.013 1.875-19.882.046-30.699 25.916-17.415 41.652l2.608 3.089-3.497 4.053c-4.852 5.626-12.762 22.328-18.607 39.292-19.214 55.763-30.043 65.192-71.709 62.442-52.082-3.438-93.689-19.902-120.679-47.754-11.554-11.923-14.247-13.39-19.697-10.727-15.197 7.425-5.729 42.047 18.538 67.789 3.129 3.32 5.217 6.198 4.638 6.396-24.015 8.227-29.951 21.686-12.889 29.223l6.393 2.823-3.642 3.291c-6.926 6.257-5.672 13.624 3.065 18.003 7.058 3.538 7.657 4.174 16.518 17.562 29.877 45.139 80.719 78.06 128.79 83.395l5.952.66v9.337c0 8.853-.111 9.371-2.143 9.993-8.82 2.702-21.666 14.815-21.666 20.43 0 9.353 8.578 10.622 17.068 2.524 14.096-13.445 32.022-13.367 45.66.199 7.207 7.169 13.376 7.235 16.301.173 3.866-9.335-19.33-26.563-35.934-26.688l-3.095-.023V341.232l7.192-.608c52.186-4.411 98.407-34.901 113.394-74.8 8.484-22.587 8.264-46.925-.746-82.708-6.644-26.385-5.774-43.182 2.773-53.566 3.074-3.736 10.053-3.035 19.94 2.003 7.327 3.733 7.974 3.895 10.832 2.711 10.001-4.142 4.399-34.63-8.118-44.177-2.451-1.869-3.439-3.561-4.227-7.236-1.178-5.493-4.994-13.485-8.357-17.503-2.279-2.722-2.283-2.764-.46-4.761 13.076-14.326 1.939-39.635-17.441-39.635-2.297 0-4.154-1.141-8.164-5.02-7.331-7.091-16.035-9.184-24.954-6.002m13.613 17.582c1.698 1.698 3.359 4.94 4.342 8.476l1.592 5.725 5.258-1.809c11.936-4.106 19.855 1.84 13.392 10.055-2.282 2.902-2.283 2.902-14.147-.451-10.165-2.872-26.422-2.345-34.914 1.133-8.532 3.493-12.705 1.512-12.705-6.03 0-7.222 8.103-10.222 16.243-6.012 4.552 2.354 5.433 1.852 6.596-3.752 2.013-9.696 8.609-13.069 14.343-7.335m4.914 37.359c15.191 3.195 24.662 12.37 26.112 25.297.587 5.231.939 5.844 6.19 10.784 6.278 5.908 11.001 16.305 5.231 11.516-4.595-3.814-20.329-1.938-25.077 2.99-15.465 16.049-17.632 34.692-8.386 72.161 11.964 48.488 6.387 78.596-19.031 102.741-29.243 27.777-82.931 41.477-122.009 31.133l-4.65-1.231 3.81-.644c12.243-2.071 15.638-2.833 21.604-4.852 30.646-10.368 51.208-39.259 55.088-77.399 1.178-11.581.442-14.679-4.039-16.996-7.366-3.809-11.624 1.036-12.458 14.177-3.443 54.264-46.239 80.423-105.124 64.256-13.702-3.761-39.458-27.483-54.254-49.969-4.059-6.169-9.277-12.973-11.595-15.122l-4.214-3.905 4.477-1.127c13.809-3.478 11.424-14.711-4.567-21.507-3.463-1.472-6.071-3.04-5.797-3.484.86-1.391 10.518-3.783 18.537-4.591 15.984-1.612 17.584-10.918 3.119-18.146-11.019-5.507-24.088-19.543-30.991-33.283-4.726-9.407-4.629-9.547 2.449-3.543 31.563 26.776 81.112 42.818 132.527 42.908 40.037.07 55.873-14.278 74.693-67.673 17.432-49.46 29.353-60.591 58.355-54.491M300 80.664c-6.889 3.548-8.53 12.959-3.226 18.496 6.788 7.085 17.883 4.358 20.407-5.016 2.609-9.688-8.151-18.13-17.181-13.48" fill-rule="evenodd"/></svg>