<svg xmlns="http://www.w3.org/2000/svg" width="400" height="400" viewBox="0 0 0 0 400 400"><path d="M196.914 1.222c-6.152 2.681-10.023 9.998-8.912 16.845 2.986 18.404 30.419 15.947 30.419-2.725 0-10.915-11.514-18.474-21.507-14.12m.016 45.635c-15.076 6.73-10.268 29.5 6.217 29.444 12.064-.04 19.239-12.802 13.093-23.289-3.702-6.317-12.596-9.152-19.31-6.155m0 45.39c-6.421 3.536-9.56 9.301-9.069 16.659l.297 4.46-7.862 4.754c-29.853 18.054-56.59 50.309-63.145 76.178l-1.333 5.263 54.152 97.582 54.153 97.582 5.702 1.741c62.567 19.111 150.627-29.837 168.28-93.539l1.708-6.165-53.855-96.846c-48.744-87.656-54.125-96.96-56.705-98.046-14.448-6.087-42.638-6.285-69.078-.485-1.839.404-2.468-.033-3.9-2.709-3.249-6.068-13.695-9.54-19.345-6.429m-63.158 2.178c-4.504.519-16.79 3.081-17.667 3.685-.459.316-26.823 43.544-58.586 96.062L-.233 289.66l1.91 7.144c17.01 63.614 99.267 113.013 163.047 97.915l7.644-1.81 6.456-10.923c3.979-6.734 6.249-11.46 5.919-12.322-.295-.768-20.739-37.743-45.43-82.166-50.159-90.241-47.196-83.761-44.102-96.446 7.966-32.658 37.2-69.83 71.25-90.597 3.022-1.844 5.312-3.536 5.087-3.761-1.707-1.707-28.612-3.323-37.776-2.269m81.256 34.755c26.505 13.72 12.417 54.723-16.777 48.828-30.895-6.239-26.602-51.692 4.883-51.692 5.469 0 7.138.402 11.894 2.864m-19.996 9.868c-8.222 4.928-9.734 16.454-3.09 23.56 9.549 10.213 26.513 3.424 26.465-10.591-.041-11.982-13.013-19.18-23.375-12.969m63.201 91.215c7.12 6.272 13.411 11.503 13.979 11.624.569.122 8.705-4.312 18.081-9.853 9.375-5.541 17.168-9.953 17.316-9.805.148.148-3.279 8.509-7.617 18.579s-7.887 18.539-7.887 18.819c0 .28 6.908 6.583 15.352 14.008 8.443 7.424 15.252 13.587 15.131 13.696-.121.108-9.414-.666-20.652-1.721l-20.433-1.919-1.565 3.549c-.86 1.952-4.493 10.359-8.073 18.681-3.58 8.322-6.71 15.132-6.956 15.132-.247 0-2.397-8.894-4.778-19.763-3.816-17.417-4.544-19.808-6.134-20.145-.992-.21-9.304-1.025-18.471-1.81-23.984-2.055-23.707-.917-3.168-13.027 15.385-9.072 17.564-10.626 17.179-12.252-1.35-5.702-8.309-37.413-8.309-37.862 0-.772 2.561 1.346 17.005 14.069" fill-rule="evenodd"/></svg>