<?xml version="1.0" standalone="no"?>
<!DOCTYPE svg PUBLIC "-//W3C//DTD SVG 1.1//EN" "http://www.w3.org/Graphics/SVG/1.1/DTD/svg11.dtd" >
<svg>
<metadata>
Created by FontForge 20110222 at Mon Mar  7 08:05:27 2011
 By www-data
From Solid Snake's Game Shrine. http://groups.msn.com/solidsnakesgameshrine
</metadata>
<defs>
<font id="MGS2Menu" horiz-adv-x="1500" >
  <font-face 
    font-family="MGS2 Menu"
    font-weight="400"
    font-stretch="normal"
    units-per-em="1000"
    panose-1="2 0 5 3 0 0 0 0 0 0"
    ascent="800"
    descent="-200"
    x-height="400"
    cap-height="700"
    bbox="0 -200 1800 701"
    underline-thickness="20"
    underline-position="-143"
    unicode-range="U+0020-201E"
  />
    <missing-glyph />
    <glyph glyph-name="space" unicode=" " horiz-adv-x="800" 
 />
    <glyph glyph-name="exclam" unicode="!" horiz-adv-x="300" 
d="M200 200h-200v500h200v-500zM200 0h-200v100h200v-100z" />
    <glyph glyph-name="quotedbl" unicode="&#x22;" horiz-adv-x="600" 
d="M500 600l-100 -100v100h-100v100h200v-100zM200 600l-100 -100v100h-100v100h200v-100z" />
    <glyph glyph-name="numbersign" unicode="#" horiz-adv-x="1152" 
d="M1052 500l-18 -100h-200l-16 -100h200l-18 -100h-200l-18 -100h-200l18 100h-200l-18 -100h-200l18 100h-200l18 100h200l16 100h-200l18 100h200l18 100h200l-18 -100h200l18 100h200l-18 -100h200zM634 400h-200l-16 -100h200z" />
    <glyph glyph-name="dollar" unicode="$" 
d="M1400 150h-600v-100h-200v100h-600v100h600v50h-600v250h600v100h200v-100h600v-100h-600v-50h600v-250zM1200 250v50h-400v-50h400zM600 400v50h-400v-50h400z" />
    <glyph glyph-name="percent" unicode="%" horiz-adv-x="1900" 
d="M1800 0h-600v400h600v-400zM1600 700l-1140 -700h-260l1140 700h260zM600 300h-600v400h600v-400zM1600 100v200h-200v-200h200zM400 400v200h-200v-200h200z" />
    <glyph glyph-name="ampersand" unicode="&#x26;" 
d="M1400 150h-600v-100h-200v100h-600v400h600v100h200v-100h600v-100h-1200v-50h600v-100h-600v-50h1200v-100z" />
    <glyph glyph-name="quotesingle" unicode="'" horiz-adv-x="300" 
d="M200 600l-100 -100v100h-100v100h200v-100z" />
    <glyph glyph-name="parenleft" unicode="(" horiz-adv-x="500" 
d="M400 0h-400v700h400v-100h-200v-500h200v-100z" />
    <glyph glyph-name="parenright" unicode=")" horiz-adv-x="500" 
d="M400 0h-400v100h200v500h-200v100h400v-700z" />
    <glyph glyph-name="asterisk" unicode="*" horiz-adv-x="1100" 
d="M1000 300h-259l183 -91l-141 -71l-183 91v-129h-200v129l-183 -91l-141 71l183 91h-259v100h259l-183 91l141 71l183 -91v129h200v-129l183 91l141 -71l-183 -91h259v-100z" />
    <glyph glyph-name="plus" unicode="+" horiz-adv-x="1100" 
d="M1000 300h-400v-200h-200v200h-400v100h400v200h200v-200h400v-100z" />
    <glyph glyph-name="comma" unicode="," horiz-adv-x="300" 
d="M200 0l-100 -100v100h-100v100h200v-100z" />
    <glyph glyph-name="hyphen" unicode="-" horiz-adv-x="1100" 
d="M1000 300h-1000v100h1000v-100z" />
    <glyph glyph-name="period" unicode="." horiz-adv-x="300" 
d="M200 0h-200v100h200v-100z" />
    <glyph glyph-name="slash" unicode="/" horiz-adv-x="656" 
d="M556 675l-362 -676l-194 26l362 676z" />
    <glyph glyph-name="zero" unicode="0" 
d="M1400 0h-1400v700h1400v-700zM1200 100v500h-1000v-500h1000z" />
    <glyph glyph-name="one" unicode="1" 
d="M1400 0h-1400v100h600v500h-600v100h800v-600h600v-100z" />
    <glyph glyph-name="two" unicode="2" 
d="M1400 0h-1400v400h1200v200h-1200v100h1400v-400h-1200v-200h1200v-100z" />
    <glyph glyph-name="three" unicode="3" 
d="M1400 0h-1400v100h1200v200h-1200v100h1200v200h-1200v100h1400v-700z" />
    <glyph glyph-name="four" unicode="4" 
d="M1400 0h-200v300h-1200v400h200v-300h1000v300h200v-700z" />
    <glyph glyph-name="five" unicode="5" 
d="M1400 0h-1400v100h1200v200h-1200v400h1400v-100h-1200v-200h1200v-400z" />
    <glyph glyph-name="six" unicode="6" 
d="M1400 0h-1400v700h1400v-100h-1200v-200h1200v-400zM1200 100v200h-1000v-200h1000z" />
    <glyph glyph-name="seven" unicode="7" 
d="M1400 0h-200v600h-1200v100h1400v-700z" />
    <glyph glyph-name="eight" unicode="8" 
d="M1400 0h-1400v700h1400v-700zM1200 400v200h-1000v-200h1000zM1200 100v200h-1000v-200h1000z" />
    <glyph glyph-name="nine" unicode="9" 
d="M1400 0h-1400v100h1200v200h-1200v400h1400v-700zM1200 400v200h-1000v-200h1000z" />
    <glyph glyph-name="colon" unicode=":" horiz-adv-x="300" 
d="M200 300h-200v100h200v-100zM200 0h-200v100h200v-100z" />
    <glyph glyph-name="semicolon" unicode=";" horiz-adv-x="300" 
d="M200 300h-200v100h200v-100zM200 0l-100 -100v100h-100v100h200v-100z" />
    <glyph glyph-name="less" unicode="&#x3c;" horiz-adv-x="930" 
d="M830 0h-260l-570 350l570 350h260l-570 -350z" />
    <glyph glyph-name="equal" unicode="=" horiz-adv-x="1100" 
d="M1000 400h-1000v100h1000v-100zM1000 200h-1000v100h1000v-100z" />
    <glyph glyph-name="greater" unicode="&#x3e;" horiz-adv-x="930" 
d="M830 350l-570 -350h-260l570 350l-570 350h260z" />
    <glyph glyph-name="question" unicode="?" 
d="M1400 300h-1200v-100h-200v200h1200v200h-1200v100h1400v-400zM200 0h-200v100h200v-100z" />
    <glyph glyph-name="at" unicode="@" 
d="M1400 0h-1400v700h1400v-700zM1200 100v500h-1000v-500h1000zM1100 150h-800v250h600v50h-600v100h800v-400zM900 250v50h-400v-50h400z" />
    <glyph glyph-name="A" unicode="A" 
d="M1400 0h-200v300h-1000v-300h-200v700h1400v-700zM1200 400v200h-1000v-200h1000z" />
    <glyph glyph-name="B" unicode="B" 
d="M1400 0h-1400v700h1200v-300h200v-400zM1000 400v200h-800v-200h800zM1200 100v200h-1000v-200h1000z" />
    <glyph glyph-name="C" unicode="C" 
d="M1400 0h-1400v700h1400v-100h-1200v-500h1200v-100z" />
    <glyph glyph-name="D" unicode="D" 
d="M1400 0h-1400v700h1400v-700zM1200 100v500h-1000v-500h1000z" />
    <glyph glyph-name="E" unicode="E" 
d="M1400 0h-1400v700h1400v-100h-1200v-200h1200v-100h-1200v-200h1200v-100z" />
    <glyph glyph-name="F" unicode="F" 
d="M1400 300h-1200v-300h-200v700h1400v-100h-1200v-200h1200v-100z" />
    <glyph glyph-name="G" unicode="G" 
d="M1400 0h-1400v700h1400v-100h-1200v-500h1000v200h-600v100h800v-400z" />
    <glyph glyph-name="H" unicode="H" 
d="M1400 0h-200v300h-1000v-300h-200v700h200v-300h1000v300h200v-700z" />
    <glyph glyph-name="I" unicode="I" 
d="M1400 0h-1400v100h600v500h-600v100h1400v-100h-600v-500h600v-100z" />
    <glyph glyph-name="J" unicode="J" 
d="M1400 0h-1400v300h200v-200h1000v600h200v-700z" />
    <glyph glyph-name="K" unicode="K" 
d="M1400 0h-200v300h-1000v-300h-200v700h200v-300h318l600 300h282l-600 -300h600v-400z" />
    <glyph glyph-name="L" unicode="L" 
d="M1400 0h-1400v700h200v-600h1200v-100z" />
    <glyph glyph-name="M" unicode="M" horiz-adv-x="1900" 
d="M1800 0h-200v600h-600v-600h-200v600h-600v-600h-200v700h1800v-700z" />
    <glyph glyph-name="N" unicode="N" 
d="M1400 0h-200v600h-1000v-600h-200v700h1400v-700z" />
    <glyph glyph-name="O" unicode="O" 
d="M1400 0h-1400v700h1400v-700zM1200 100v500h-1000v-500h1000z" />
    <glyph glyph-name="P" unicode="P" 
d="M1400 300h-1200v-300h-200v700h1400v-400zM1200 400v200h-1000v-200h1000z" />
    <glyph glyph-name="Q" unicode="Q" 
d="M1400 0h-1400v700h1400v-700zM1200 171v429h-1000v-500h859l-459 229l141 71z" />
    <glyph glyph-name="R" unicode="R" 
d="M1400 0h-282l-600 300h-318v-300h-200v700h1400v-400h-600zM1200 400v200h-1000v-200h1000z" />
    <glyph glyph-name="S" unicode="S" 
d="M1400 0h-1400v100h1200v200h-1200v400h1400v-100h-1200v-200h1200v-400z" />
    <glyph glyph-name="T" unicode="T" 
d="M1400 600h-600v-600h-200v600h-600v100h1400v-100z" />
    <glyph glyph-name="U" unicode="U" 
d="M1400 0h-1400v700h200v-600h1000v600h200v-700z" />
    <glyph glyph-name="V" unicode="V" 
d="M1400 430l-700 -430l-700 430v270h200v-235l500 -305l500 309v231h200v-270z" />
    <glyph glyph-name="W" unicode="W" horiz-adv-x="1900" 
d="M1800 0h-1800v700h200v-600h600v600h200v-600h600v600h200v-700z" />
    <glyph glyph-name="X" unicode="X" 
d="M1400 0h-260l-440 270l-440 -270h-260l570 350l-570 350h260l440 -270l440 270h260l-570 -350z" />
    <glyph glyph-name="Y" unicode="Y" 
d="M1400 0h-1400v100h1200v200h-1200v400h200v-300h1000v300h200v-700z" />
    <glyph glyph-name="Z" unicode="Z" 
d="M1400 0h-1400l978 600h-978v100h1400l-978 -600h978v-100z" />
    <glyph glyph-name="bracketleft" unicode="[" horiz-adv-x="500" 
d="M400 0h-400v700h400v-100h-200v-500h200v-100z" />
    <glyph glyph-name="backslash" unicode="\" horiz-adv-x="656" 
d="M556 25l-194 -26l-362 676l194 26z" />
    <glyph glyph-name="bracketright" unicode="]" horiz-adv-x="500" 
d="M400 0h-400v100h200v500h-200v100h400v-700z" />
    <glyph glyph-name="asciicircum" unicode="^" 
d="M1400 445h-300l-400 145l-400 -145h-300l700 255z" />
    <glyph glyph-name="underscore" unicode="_" horiz-adv-x="1400" 
d="M1400 0h-1400v100h1400v-100z" />
    <glyph glyph-name="a" unicode="a" 
d="M1400 0h-1400v250h1200v50h-1200v100h1400v-400zM1200 100v50h-1000v-50h1000z" />
    <glyph glyph-name="b" unicode="b" 
d="M1400 0h-1400v700h200v-300h1200v-400zM1200 100v200h-1000v-200h1000z" />
    <glyph glyph-name="c" unicode="c" 
d="M1400 0h-1400v400h1400v-100h-1200v-200h1200v-100z" />
    <glyph glyph-name="d" unicode="d" 
d="M1400 0h-1400v400h1200v300h200v-700zM1200 100v200h-1000v-200h1000z" />
    <glyph glyph-name="e" unicode="e" 
d="M1400 0h-1400v400h1400v-250h-1200v-50h1200v-100zM1200 250v50h-1000v-50h1000z" />
    <glyph glyph-name="f" unicode="f" 
d="M1400 0h-1200v-200h-200v600h1400v-100h-1200v-200h1200v-100z" />
    <glyph glyph-name="g" unicode="g" 
d="M1400 -200h-1400v100h1200v100h-1200v400h1400v-600zM1200 100v200h-1000v-200h1000z" />
    <glyph glyph-name="h" unicode="h" 
d="M1400 0h-200v300h-1000v-300h-200v700h200v-300h1200v-400z" />
    <glyph glyph-name="i" unicode="i" horiz-adv-x="300" 
d="M200 500h-200v100h200v-100zM200 0h-200v400h200v-400z" />
    <glyph glyph-name="j" unicode="j" horiz-adv-x="300" 
d="M200 500h-200v100h200v-100zM200 -200h-200v600h200v-600z" />
    <glyph glyph-name="k" unicode="k" 
d="M1400 0h-282l-600 300h-318v-300h-200v700h200v-300h1200v-100h-600z" />
    <glyph glyph-name="l" unicode="l" horiz-adv-x="300" 
d="M200 0h-200v700h200v-700z" />
    <glyph glyph-name="m" unicode="m" horiz-adv-x="1900" 
d="M1800 0h-200v300h-600v-300h-200v300h-600v-300h-200v400h1800v-400z" />
    <glyph glyph-name="n" unicode="n" 
d="M1400 0h-200v300h-1000v-300h-200v400h1400v-400z" />
    <glyph glyph-name="o" unicode="o" 
d="M1400 0h-1400v400h1400v-400zM1200 100v200h-1000v-200h1000z" />
    <glyph glyph-name="p" unicode="p" 
d="M1400 0h-1200v-200h-200v600h1400v-400zM1200 100v200h-1000v-200h1000z" />
    <glyph glyph-name="q" unicode="q" 
d="M1400 -200h-200v200h-1200v400h1400v-600zM1200 100v200h-1000v-200h1000z" />
    <glyph glyph-name="r" unicode="r" 
d="M1400 300h-1200v-300h-200v400h1400v-100z" />
    <glyph glyph-name="s" unicode="s" 
d="M1400 0h-1400v100h1200v50h-1200v250h1400v-100h-1200v-50h1200v-250z" />
    <glyph glyph-name="t" unicode="t" 
d="M1400 0h-1400v700h200v-300h1200v-100h-1200v-200h1200v-100z" />
    <glyph glyph-name="u" unicode="u" 
d="M1400 0h-1400v400h200v-300h1000v300h200v-400z" />
    <glyph glyph-name="v" unicode="v" 
d="M1400 255l-700 -255l-700 255v145h200v-107l500 -184l500 184v107h200v-145z" />
    <glyph glyph-name="w" unicode="w" horiz-adv-x="1900" 
d="M1800 0h-1800v400h200v-300h600v300h200v-300h600v300h200v-400z" />
    <glyph glyph-name="x" unicode="x" 
d="M1400 0h-300l-400 145l-400 -145h-300l550 200l-550 200h300l400 -145l400 145h300l-550 -200z" />
    <glyph glyph-name="y" unicode="y" 
d="M1400 -200h-1400v100h1200v100h-1200v400h200v-300h1000v300h200v-600z" />
    <glyph glyph-name="z" unicode="z" 
d="M1400 0h-1400l826 300h-826v100h1400l-824 -300h824v-100z" />
    <glyph glyph-name="braceleft" unicode="{" horiz-adv-x="500" 
d="M400 0h-400v700h400v-100h-200v-500h200v-100z" />
    <glyph glyph-name="bar" unicode="|" horiz-adv-x="300" 
d="M200 0h-200v700h200v-700z" />
    <glyph glyph-name="braceright" unicode="}" horiz-adv-x="500" 
d="M400 0h-400v100h200v500h-200v100h400v-700z" />
    <glyph glyph-name="exclamdown" unicode="&#xa1;" horiz-adv-x="300" 
d="M200 600h-200v100h200v-100zM200 0h-200v500h200v-500z" />
    <glyph glyph-name="cent" unicode="&#xa2;" 
d="M1400 150h-600v-100h-200v100h-600v400h600v100h200v-100h600v-100h-600v-200h600v-100zM600 250v200h-400v-200h400z" />
    <glyph glyph-name="questiondown" unicode="&#xbf;" 
d="M1400 600h-200v100h200v-100zM1400 0h-1400v400h1200v100h200v-200h-1200v-200h1200v-100z" />
    <glyph glyph-name="quoteleft" unicode="&#x2018;" horiz-adv-x="300" 
d="M200 500h-200v100l100 100v-100h100v-100z" />
    <glyph glyph-name="quoteright" unicode="&#x2019;" horiz-adv-x="300" 
d="M200 600l-100 -100v100h-100v100h200v-100z" />
    <glyph glyph-name="quotesinglbase" unicode="&#x201a;" horiz-adv-x="300" 
d="M200 0l-100 -100v100h-100v100h200v-100z" />
    <glyph glyph-name="quotedblleft" unicode="&#x201c;" horiz-adv-x="600" 
d="M500 500h-200v100l100 100v-100h100v-100zM200 500h-200v100l100 100v-100h100v-100z" />
    <glyph glyph-name="quotedblright" unicode="&#x201d;" horiz-adv-x="600" 
d="M500 600l-100 -100v100h-100v100h200v-100zM200 600l-100 -100v100h-100v100h200v-100z" />
    <glyph glyph-name="quotedblbase" unicode="&#x201e;" horiz-adv-x="600" 
d="M500 0l-100 -100v100h-100v100h200v-100zM200 0l-100 -100v100h-100v100h200v-100z" />
  </font>
</defs>
</svg>
